<?xml version="1.0" encoding="utf-8"?>
<!-- Generator: Adobe Illustrator 16.0.4, SVG Export Plug-In . SVG Version: 6.00 Build 0)  -->
<!DOCTYPE svg PUBLIC "-//W3C//DTD SVG 1.1//EN" "http://www.w3.org/Graphics/SVG/1.1/DTD/svg11.dtd">
<svg version="1.1" id="Capa_1" xmlns="http://www.w3.org/2000/svg" xmlns:xlink="http://www.w3.org/1999/xlink" x="0px" y="0px"
	 width="40px" height="40px" viewBox="0 0 100 100" enable-background="new 0 0 100 100" xml:space="preserve">
<g>
	<path fill="#fff" d="M80.1,73.418L66.667,59.984c2.864-4.193,4.543-9.262,4.543-14.712c0-14.424-11.735-26.16-26.159-26.16
		s-26.158,11.736-26.158,26.16c0,14.423,11.734,26.158,26.158,26.158c6.529,0,12.502-2.408,17.09-6.379l13.162,13.162
		c0.662,0.662,1.53,0.993,2.398,0.993c0.867,0,1.736-0.331,2.398-0.993C81.424,76.891,81.424,74.741,80.1,73.418z M59.814,62.582
		c-3.979,3.398-9.133,5.457-14.766,5.457c-12.553,0-22.767-10.214-22.767-22.767c0-12.555,10.214-22.768,22.767-22.768
		c12.557,0,22.77,10.213,22.77,22.768c0,4.596-1.373,8.876-3.729,12.46C62.9,59.545,61.459,61.18,59.814,62.582z"/>
	<path fill="#fff" d="M57.973,41.455L55.564,39.6l-0.654-0.504v-5.79c0-0.819-0.665-1.483-1.484-1.483
		c-0.818,0-1.482,0.664-1.482,1.483v3.505l-6.151-4.736c-0.436-0.336-1.042-0.336-1.478,0l-9.916,7.634l-2.419,1.862l-2.809,2.163
		c-0.53,0.408-0.629,1.169-0.221,1.699c0.408,0.529,1.169,0.629,1.699,0.221l1.33-1.024v12.88c0,0.67,0.543,1.211,1.212,1.211h1.174
		h22.398c0.67,0,1.213-0.541,1.213-1.211V44.513l1.48,1.141c0.221,0.17,0.479,0.252,0.736,0.252c0.363,0,0.724-0.162,0.961-0.472
		c0.41-0.531,0.312-1.291-0.219-1.7L57.973,41.455z"/>
</g>
</svg>
